<mxfile host="app.diagrams.net" modified="2023-11-01T03:19:08.198Z" agent="Mozilla/5.0 (Macintosh; Intel Mac OS X 10_15_7) AppleWebKit/537.36 (KHTML, like Gecko) Chrome/118.0.0.0 Safari/537.36" etag="OL91mjwSmOl8pWWoPYj6" version="22.0.8" type="github">
  <diagram name="第 1 页" id="8yFnED6kaEZXydfluwhr">
    <mxGraphModel dx="956" dy="510" grid="1" gridSize="10" guides="1" tooltips="1" connect="1" arrows="1" fold="1" page="1" pageScale="1" pageWidth="827" pageHeight="1169" math="0" shadow="0">
      <root>
        <mxCell id="0" />
        <mxCell id="1" parent="0" />
        <mxCell id="VWUyws8iMKpoBbYn44xb-13" style="edgeStyle=orthogonalEdgeStyle;rounded=0;orthogonalLoop=1;jettySize=auto;html=1;exitX=0.5;exitY=1;exitDx=0;exitDy=0;entryX=0.5;entryY=0;entryDx=0;entryDy=0;" edge="1" parent="1" source="VWUyws8iMKpoBbYn44xb-9" target="VWUyws8iMKpoBbYn44xb-10">
          <mxGeometry relative="1" as="geometry" />
        </mxCell>
        <mxCell id="VWUyws8iMKpoBbYn44xb-9" value="方法入口" style="rounded=1;whiteSpace=wrap;html=1;fillColor=#ffe6cc;strokeColor=#d79b00;" vertex="1" parent="1">
          <mxGeometry x="200" y="170" width="90" height="30" as="geometry" />
        </mxCell>
        <mxCell id="VWUyws8iMKpoBbYn44xb-14" style="edgeStyle=orthogonalEdgeStyle;rounded=0;orthogonalLoop=1;jettySize=auto;html=1;exitX=0.5;exitY=1;exitDx=0;exitDy=0;entryX=0.5;entryY=0;entryDx=0;entryDy=0;" edge="1" parent="1" source="VWUyws8iMKpoBbYn44xb-10" target="VWUyws8iMKpoBbYn44xb-11">
          <mxGeometry relative="1" as="geometry" />
        </mxCell>
        <mxCell id="VWUyws8iMKpoBbYn44xb-10" value="执行主体" style="rounded=1;whiteSpace=wrap;html=1;fillColor=#ffe6cc;strokeColor=#d79b00;" vertex="1" parent="1">
          <mxGeometry x="200" y="250" width="90" height="30" as="geometry" />
        </mxCell>
        <mxCell id="VWUyws8iMKpoBbYn44xb-11" value="方法出口" style="rounded=1;whiteSpace=wrap;html=1;fillColor=#ffe6cc;strokeColor=#d79b00;" vertex="1" parent="1">
          <mxGeometry x="200" y="330" width="90" height="30" as="geometry" />
        </mxCell>
        <mxCell id="VWUyws8iMKpoBbYn44xb-15" style="edgeStyle=orthogonalEdgeStyle;rounded=0;orthogonalLoop=1;jettySize=auto;html=1;exitX=0;exitY=0.5;exitDx=0;exitDy=0;entryX=1;entryY=0.5;entryDx=0;entryDy=0;dashed=1;" edge="1" parent="1" source="VWUyws8iMKpoBbYn44xb-12" target="VWUyws8iMKpoBbYn44xb-9">
          <mxGeometry relative="1" as="geometry" />
        </mxCell>
        <mxCell id="VWUyws8iMKpoBbYn44xb-19" style="edgeStyle=orthogonalEdgeStyle;rounded=0;orthogonalLoop=1;jettySize=auto;html=1;exitX=0.5;exitY=1;exitDx=0;exitDy=0;entryX=0.5;entryY=0;entryDx=0;entryDy=0;" edge="1" parent="1" source="VWUyws8iMKpoBbYn44xb-12" target="VWUyws8iMKpoBbYn44xb-16">
          <mxGeometry relative="1" as="geometry" />
        </mxCell>
        <mxCell id="VWUyws8iMKpoBbYn44xb-12" value="起始时间" style="rounded=1;whiteSpace=wrap;html=1;fillColor=#f8cecc;strokeColor=#b85450;" vertex="1" parent="1">
          <mxGeometry x="354" y="170" width="86" height="30" as="geometry" />
        </mxCell>
        <mxCell id="VWUyws8iMKpoBbYn44xb-18" style="edgeStyle=orthogonalEdgeStyle;rounded=0;orthogonalLoop=1;jettySize=auto;html=1;exitX=0;exitY=0.5;exitDx=0;exitDy=0;entryX=1;entryY=0.5;entryDx=0;entryDy=0;dashed=1;" edge="1" parent="1" source="VWUyws8iMKpoBbYn44xb-16" target="VWUyws8iMKpoBbYn44xb-11">
          <mxGeometry relative="1" as="geometry">
            <mxPoint x="290" y="340" as="targetPoint" />
          </mxGeometry>
        </mxCell>
        <mxCell id="VWUyws8iMKpoBbYn44xb-24" value="" style="edgeStyle=orthogonalEdgeStyle;rounded=0;orthogonalLoop=1;jettySize=auto;html=1;" edge="1" parent="1" source="VWUyws8iMKpoBbYn44xb-16" target="VWUyws8iMKpoBbYn44xb-23">
          <mxGeometry relative="1" as="geometry" />
        </mxCell>
        <mxCell id="VWUyws8iMKpoBbYn44xb-16" value="结束时间" style="rounded=1;whiteSpace=wrap;html=1;fillColor=#f8cecc;strokeColor=#b85450;" vertex="1" parent="1">
          <mxGeometry x="354" y="330" width="86" height="30" as="geometry" />
        </mxCell>
        <mxCell id="VWUyws8iMKpoBbYn44xb-20" value="方法打桩" style="text;html=1;align=center;verticalAlign=middle;resizable=0;points=[];autosize=1;strokeColor=none;fillColor=none;" vertex="1" parent="1">
          <mxGeometry x="290" y="158" width="70" height="30" as="geometry" />
        </mxCell>
        <mxCell id="VWUyws8iMKpoBbYn44xb-21" value="方法打桩" style="text;html=1;align=center;verticalAlign=middle;resizable=0;points=[];autosize=1;strokeColor=none;fillColor=none;" vertex="1" parent="1">
          <mxGeometry x="290" y="310" width="70" height="30" as="geometry" />
        </mxCell>
        <mxCell id="VWUyws8iMKpoBbYn44xb-26" value="" style="edgeStyle=orthogonalEdgeStyle;rounded=0;orthogonalLoop=1;jettySize=auto;html=1;" edge="1" parent="1" source="VWUyws8iMKpoBbYn44xb-23" target="VWUyws8iMKpoBbYn44xb-25">
          <mxGeometry relative="1" as="geometry" />
        </mxCell>
        <mxCell id="VWUyws8iMKpoBbYn44xb-23" value="指标统计（count，lay）" style="rounded=1;whiteSpace=wrap;html=1;fillColor=#f8cecc;strokeColor=#b85450;" vertex="1" parent="1">
          <mxGeometry x="354" y="400" width="86" height="30" as="geometry" />
        </mxCell>
        <mxCell id="VWUyws8iMKpoBbYn44xb-25" value="指标存储" style="rounded=1;whiteSpace=wrap;html=1;fillColor=#d5e8d4;strokeColor=#82b366;" vertex="1" parent="1">
          <mxGeometry x="354" y="480" width="86" height="30" as="geometry" />
        </mxCell>
        <mxCell id="VWUyws8iMKpoBbYn44xb-28" style="edgeStyle=orthogonalEdgeStyle;rounded=0;orthogonalLoop=1;jettySize=auto;html=1;exitX=1;exitY=0.5;exitDx=0;exitDy=0;entryX=0;entryY=0.5;entryDx=0;entryDy=0;" edge="1" parent="1" source="VWUyws8iMKpoBbYn44xb-27" target="VWUyws8iMKpoBbYn44xb-25">
          <mxGeometry relative="1" as="geometry" />
        </mxCell>
        <mxCell id="VWUyws8iMKpoBbYn44xb-27" value="展示屏" style="rounded=1;whiteSpace=wrap;html=1;fillColor=#dae8fc;strokeColor=#6c8ebf;" vertex="1" parent="1">
          <mxGeometry x="200" y="465" width="120" height="60" as="geometry" />
        </mxCell>
      </root>
    </mxGraphModel>
  </diagram>
</mxfile>
